<?xml version="1.0" encoding="UTF-8" standalone="no"?>
<svg
   xmlns:dc="http://purl.org/dc/elements/1.1/"
   xmlns:cc="http://creativecommons.org/ns#"
   xmlns:rdf="http://www.w3.org/1999/02/22-rdf-syntax-ns#"
   xmlns:svg="http://www.w3.org/2000/svg"
   xmlns="http://www.w3.org/2000/svg"
   xmlns:sodipodi="http://sodipodi.sourceforge.net/DTD/sodipodi-0.dtd"
   xmlns:inkscape="http://www.inkscape.org/namespaces/inkscape"
   viewBox="0 0 1365.3333 1365.3333"
   height="1365.3333"
   width="1365.3333"
   xml:space="preserve"
   id="svg2"
   version="1.1"
   sodipodi:docname="apk-preview.svg"
   inkscape:version="0.92.1 r"><sodipodi:namedview
     pagecolor="#ffffff"
     bordercolor="#666666"
     borderopacity="1"
     objecttolerance="10"
     gridtolerance="10"
     guidetolerance="10"
     inkscape:pageopacity="0"
     inkscape:pageshadow="2"
     inkscape:window-width="1680"
     inkscape:window-height="982"
     id="namedview31"
     showgrid="false"
     inkscape:zoom="0.34570315"
     inkscape:cx="460.06885"
     inkscape:cy="528.42235"
     inkscape:window-x="0"
     inkscape:window-y="32"
     inkscape:window-maximized="1"
     inkscape:current-layer="svg2" /><metadata
     id="metadata8"><rdf:RDF><cc:Work
         rdf:about=""><dc:format>image/svg+xml</dc:format><dc:type
           rdf:resource="http://purl.org/dc/dcmitype/StillImage" /><dc:title /></cc:Work></rdf:RDF></metadata><defs
     id="defs6"><clipPath
       id="clipPath20"
       clipPathUnits="userSpaceOnUse"><path
         id="path18"
         d="M 0,1024 H 1024 V 0 H 0 Z" /></clipPath><filter
       id="filter855"
       style="color-interpolation-filters:sRGB;"><feFlood
         id="feFlood845"
         result="flood"
         flood-color="rgb(0,0,0)"
         flood-opacity="0.498039" /><feComposite
         id="feComposite847"
         result="composite1"
         operator="in"
         in2="SourceGraphic"
         in="flood" /><feGaussianBlur
         id="feGaussianBlur849"
         result="blur"
         stdDeviation="9.8"
         in="composite1" /><feOffset
         id="feOffset851"
         result="offset"
         dy="7.4"
         dx="7.4" /><feComposite
         id="feComposite853"
         result="composite2"
         operator="over"
         in2="offset"
         in="SourceGraphic" /></filter><filter
       id="filter879"
       style="color-interpolation-filters:sRGB;"
       height="1.5"
       y="-0.25"><feGaussianBlur
         id="feGaussianBlur869"
         result="result6"
         stdDeviation="5" /><feComposite
         id="feComposite871"
         in2="result6"
         operator="atop"
         in="SourceGraphic"
         result="result8" /><feComposite
         id="feComposite873"
         in="result8"
         in2="SourceAlpha"
         operator="over"
         result="result9" /><feColorMatrix
         id="feColorMatrix875"
         result="result10"
         values="1 0 0 0 0 0 1 0 0 0 0 0 1 0 0 0 0 0 1 0 " /><feBlend
         id="feBlend877"
         in2="result6"
         mode="normal"
         in="result10" /></filter><filter
       y="-0.25"
       height="1.5"
       inkscape:menu-tooltip="Darkens the edge with an inner blur and adds a flexible glow"
       inkscape:menu="Shadows and Glows"
       inkscape:label="Dark And Glow"
       style="color-interpolation-filters:sRGB;"
       id="filter4668"><feGaussianBlur
         stdDeviation="5"
         result="result6"
         id="feGaussianBlur4658" /><feComposite
         result="result8"
         in="SourceGraphic"
         operator="atop"
         in2="result6"
         id="feComposite4660" /><feComposite
         result="result9"
         operator="over"
         in2="SourceAlpha"
         in="result8"
         id="feComposite4662" /><feColorMatrix
         values="1 0 0 0 0 0 1 0 0 0 0 0 1 0 0 0 0 0 1 0 "
         result="result10"
         id="feColorMatrix4664" /><feBlend
         in="result10"
         mode="normal"
         in2="result6"
         id="feBlend4666" /></filter></defs><circle
     style="opacity:1;fill:#5ac664;fill-opacity:1;stroke:#5ac664;stroke-width:3.67500019;stroke-linecap:round;stroke-linejoin:round;stroke-miterlimit:4;stroke-dasharray:none;stroke-opacity:1;filter:url(#filter879)"
     id="path843"
     cx="509.83051"
     cy="-507.66101"
     r="497.2728"
     transform="matrix(1.3333333,0,0,1.3333333,0,1365.3333)" /><g
     id="g14"
     style="fill:#ffffff;filter:url(#filter855)"
     transform="matrix(1.3333333,0,0,-1.3333333,0,1365.3333)"><g
       id="g16"
       clip-path="url(#clipPath20)"
       style="fill:#ffffff"><g
         id="g22"
         transform="translate(251.9004,639.0728)"
         style="fill:#ffffff"><path
           inkscape:connector-curvature="0"
           d="m 0,0 c -24.513,0 -44.386,-19.867 -44.395,-44.379 v 0 -75.487 -35.5 -75.488 0 c 0.009,-24.51 19.882,-44.379 44.395,-44.379 24.513,0 44.386,19.869 44.395,44.379 v 0 75.488 35.5 75.487 0 C 44.386,-19.867 24.513,0 0,0"
           style="fill:#ffffff;fill-opacity:1;fill-rule:nonzero;stroke:none"
           id="path24" /></g><g
         id="g26"
         transform="translate(818.6743,594.6938)"
         style="fill:#ffffff"><path
           inkscape:connector-curvature="0"
           d="M 0,0 C -0.008,24.512 -19.883,44.379 -44.395,44.379 -68.908,44.379 -88.779,24.512 -88.787,0 h -0.002 v -75.487 -35.5 -75.488 h 0.002 c 0.008,-24.51 19.879,-44.379 44.392,-44.379 24.512,0 44.387,19.869 44.395,44.379 v 75.488 35.5 z"
           style="fill:#ffffff;fill-opacity:1;fill-rule:nonzero;stroke:none"
           id="path28" /></g><g
         id="g30"
         transform="translate(314.4087,631.3208)"
         style="fill:#ffffff"><path
           inkscape:connector-curvature="0"
           d="m 0,0 h -2.206 v -292.655 c 0,-24.418 19.978,-44.396 44.395,-44.396 h 37.415 v -26.51 -75.49 0 c 0.008,-24.51 19.881,-44.379 44.394,-44.379 24.513,0 44.386,19.869 44.395,44.379 v 75.49 26.51 h 60.576 v -26.51 -75.49 c 0.011,-24.51 19.883,-44.379 44.396,-44.379 24.512,0 44.385,19.869 44.395,44.379 v 75.49 26.51 h 37.414 c 24.418,0 44.394,19.978 44.394,44.396 V 0 h -0.724 z"
           style="fill:#ffffff;fill-opacity:1;fill-rule:nonzero;stroke:none"
           id="path32" /></g><g
         id="g34"
         transform="translate(421.71,755.6265)"
         style="fill:#ffffff"><path
           inkscape:connector-curvature="0"
           d="m 0,0 c 10.42,0 18.868,-8.447 18.868,-18.868 0,-10.42 -8.448,-18.867 -18.868,-18.867 -10.42,0 -18.868,8.447 -18.868,18.867 C -18.868,-8.447 -10.42,0 0,0 m 182.761,0 c 10.42,0 18.867,-8.447 18.867,-18.868 0,-10.42 -8.447,-18.867 -18.867,-18.867 -10.42,0 -18.867,8.447 -18.867,18.867 0,10.421 8.447,18.868 18.867,18.868 m 109.137,-108.768 v 21.4 c -0.58,6.072 -1.498,12.056 -2.74,17.94 -10.992,52.061 -47.315,96.16 -97.135,121.769 l 30.648,56.538 c 1.899,3.503 0.598,7.882 -2.904,9.78 -3.504,1.901 -7.881,0.598 -9.779,-2.904 L 178.951,58.496 C 152.576,69.832 123,76.194 91.75,76.194 60.265,76.194 30.472,69.742 3.947,58.245 l -31.173,57.51 c -1.899,3.502 -6.277,4.805 -9.78,2.904 -3.503,-1.898 -4.803,-6.277 -2.904,-9.78 L -9.101,52.04 c -47.489,-24.599 -82.626,-66.029 -95.087,-115.122 -3.233,-12.738 -4.949,-25.989 -4.949,-39.599 0,-2.038 0.053,-4.065 0.129,-6.087 z"
           style="fill:#ffffff;fill-opacity:1;fill-rule:nonzero;stroke:none"
           id="path36" /></g></g></g><text
     xml:space="preserve"
     style="font-style:normal;font-variant:normal;font-weight:normal;font-stretch:normal;font-size:26.66666603px;line-height:25px;font-family:'B Yekan+';-inkscape-font-specification:'B Yekan+';letter-spacing:0px;word-spacing:0px;fill:#ff0066;fill-opacity:1;stroke:none;stroke-width:1px;stroke-linecap:butt;stroke-linejoin:miter;stroke-opacity:1;filter:url(#filter4668)"
     x="486.41461"
     y="757.31134"
     id="text4510"><tspan
       sodipodi:role="line"
       id="tspan4508"
       x="486.41461"
       y="757.31134"
       style="font-size:192px;fill:#ff0066;">APK</tspan></text>
</svg>